<svg enable-background="new 0 0 256 256" height="512" viewBox="0 0 256 256" width="512" xmlns="http://www.w3.org/2000/svg"><path d="m80.58 20.239c0 5.57-3.34 10.37-8.14 12.48-1.68.75-3.54 1.16-5.5 1.16-7.54 0-13.65-6.11-13.65-13.64 0-7.54 6.11-13.65 13.65-13.65 1.96 0 3.82.41 5.5 1.16 4.8 2.11 8.14 6.91 8.14 12.49z" fill="#5fcdff"/><path d="m166.79 22.729c0 5.58-3.35 10.38-8.15 12.49-1.68.75-3.54 1.16-5.5 1.16-7.54 0-13.65-6.11-13.65-13.65 0-7.53 6.11-13.64 13.65-13.64 1.96 0 3.82.41 5.5 1.16 4.8 2.11 8.15 6.91 8.15 12.48z" fill="#5fcdff"/><path d="m209.77 30.649c0 3.85-2.09 7.21-5.2 9.01-1.53.89-3.32 1.4-5.22 1.4-5.75 0-10.41-4.66-10.41-10.41s4.66-10.41 10.41-10.41c1.9 0 3.69.51 5.22 1.4 3.11 1.8 5.2 5.16 5.2 9.01z" fill="#ff4a73"/><path d="m128 51.279c0 8.28-5.08 15.37-12.29 18.33-2.31.95-4.84 1.47-7.5 1.47-10.93 0-19.79-8.86-19.79-19.8 0-10.93 8.86-19.79 19.79-19.79 2.66 0 5.19.52 7.5 1.48 7.21 2.95 12.29 10.04 12.29 18.31z" fill="#ff4a73"/><path d="m80.58 20.239c0 5.57-3.34 10.37-8.14 12.48-1.68.75-3.54 1.16-5.5 1.16-7.54 0-13.65-6.11-13.65-13.64 0-7.54 6.11-13.65 13.65-13.65 1.96 0 3.82.41 5.5 1.16 4.8 2.11 8.14 6.91 8.14 12.49z" fill="#73d7f9"/><path d="m166.79 22.729c0 5.58-3.35 10.38-8.15 12.49-1.68.75-3.54 1.16-5.5 1.16-7.54 0-13.65-6.11-13.65-13.65 0-7.53 6.11-13.64 13.65-13.64 1.96 0 3.82.41 5.5 1.16 4.8 2.11 8.15 6.91 8.15 12.48z" fill="#73d7f9"/><path d="m209.77 30.649c0 3.85-2.09 7.21-5.2 9.01-1.53.89-3.32 1.4-5.22 1.4-5.75 0-10.41-4.66-10.41-10.41s4.66-10.41 10.41-10.41c1.9 0 3.69.51 5.22 1.4 3.11 1.8 5.2 5.16 5.2 9.01z" fill="#f973a3"/><path d="m128 51.279c0 8.28-5.08 15.37-12.29 18.33-2.31.95-4.84 1.47-7.5 1.47-10.93 0-19.79-8.86-19.79-19.8 0-10.93 8.86-19.79 19.79-19.79 2.66 0 5.19.52 7.5 1.48 7.21 2.95 12.29 10.04 12.29 18.31z" fill="#f973a3"/><path d="m80.58 20.239c0 5.57-3.34 10.37-8.14 12.48-4.8-2.11-8.15-6.91-8.15-12.48 0-5.58 3.35-10.38 8.15-12.49 4.8 2.11 8.14 6.91 8.14 12.49z" fill="#5fcdff"/><path d="m166.79 22.729c0 5.58-3.35 10.38-8.15 12.49-4.8-2.11-8.15-6.91-8.15-12.49 0-5.57 3.35-10.37 8.15-12.48 4.8 2.11 8.15 6.91 8.15 12.48z" fill="#5fcdff"/><path d="m209.77 30.649c0 3.85-2.09 7.21-5.2 9.01-3.12-1.79-5.22-5.15-5.22-9.01s2.1-7.22 5.22-9.01c3.11 1.8 5.2 5.16 5.2 9.01z" fill="#ff4a73"/><path d="m128 51.279c0 8.28-5.08 15.37-12.29 18.33-7.21-2.96-12.29-10.05-12.29-18.33 0-8.27 5.08-15.36 12.29-18.31 7.21 2.95 12.29 10.04 12.29 18.31z" fill="#ff4a73"/><path d="m142.317 230.868-22.5 17.478c-3.285 2.552-8.067.211-8.067-3.949v-65.03h32.5v47.553c0 1.544-.713 3.001-1.933 3.948z" fill="#f9d335"/><path d="m126.75 179.369v63.6l-6.93 5.38c-3.29 2.55-8.07.21-8.07-3.95v-65.03z" fill="#f9e27d"/><path d="m213 76.559-66.17 118.4c-.88 1.59-2.55 2.57-4.36 2.57h-28.15c-1.81 0-3.47-.97-4.36-2.54l-66.96-118.43z" fill="#f9d335"/><path d="m129.32 197.529h-15c-1.81 0-3.47-.97-4.36-2.54l-66.96-118.43h15l66.96 118.43c.89 1.57 2.55 2.54 4.36 2.54z" fill="#f9e27d"/><path d="m212.7 76.559-65.87 118.4c-.88 1.59-2.55 2.57-4.36 2.57h-15c1.81 0 3.48-.98 4.36-2.57l66.17-118.4z" fill="#f2c300"/><path d="m213.265 89.352h-170.53c-8.284 0-15-6.716-15-15v-3.595c0-8.284 6.716-15 15-15h170.53c8.284 0 15 6.716 15 15v3.595c0 8.284-6.716 15-15 15z" fill="#f9d335"/><path d="m57.74 89.349h-15c-8.29 0-15-6.71-15-15v-3.59c0-8.29 6.71-15 15-15h15c-8.29 0-15 6.71-15 15v3.59c0 8.29 6.71 15 15 15z" fill="#f9e27d"/><path d="m228.26 70.759v3.59c0 8.29-6.71 15-15 15h-15c8.29 0 15-6.71 15-15v-3.59c0-8.29-6.71-15-15-15h15c8.29 0 15 6.71 15 15z" fill="#f2c300"/><g fill="#5f266d"><path d="m213.265 51.756h-81.278c.269-13.478-10.633-24.267-23.776-24.267-13.125 0-24.046 10.773-23.776 24.267h-41.7c-10.477 0-19 8.523-19 19v3.596c0 10.477 8.523 19 19 19h5.163l58.58 103.606c.353.625.787 1.196 1.272 1.715v45.727c0 5.133 4.182 9.01 9.013 9.01 1.953 0 3.889-.644 5.512-1.902l22.503-17.482c2.175-1.693 3.473-4.35 3.473-7.106v-27.502c.834-.7 1.542-1.547 2.072-2.507l57.873-103.559h5.069c10.477 0 19-8.523 19-19v-3.596c0-10.477-8.524-19-19-19zm-105.055-16.267c8.725 0 16.035 7.175 15.763 16.267h-31.526c-.273-9.1 7.045-16.267 15.763-16.267zm32.04 191.43c0 .308-.145.605-.384.791l-22.496 17.477c-.67.519-1.62.052-1.62-.788v-42.87h24.5zm3.079-33.894c-.172.312-.508.504-.859.504h-28.15c-.375 0-.708-.206-.878-.509l-56.353-99.668h141.941zm80.936-118.673c0 6.065-4.935 11-11 11h-170.53c-6.065 0-11-4.935-11-11v-3.596c0-6.065 4.935-11 11-11h170.529c6.065 0 11 4.935 11 11v3.596z"/><path d="m66.939 37.882c9.729 0 17.646-7.916 17.646-17.646s-7.916-17.646-17.646-17.646-17.646 7.916-17.646 17.646 7.917 17.646 17.646 17.646zm0-27.292c5.318 0 9.646 4.327 9.646 9.646s-4.327 9.646-9.646 9.646-9.646-4.327-9.646-9.646c.001-5.319 4.328-9.646 9.646-9.646z"/><path d="m153.14 40.377c9.729 0 17.646-7.916 17.646-17.646s-7.917-17.646-17.646-17.646-17.646 7.916-17.646 17.646 7.916 17.646 17.646 17.646zm0-27.292c5.318 0 9.646 4.327 9.646 9.646s-4.327 9.646-9.646 9.646-9.646-4.327-9.646-9.646c0-5.318 4.327-9.646 9.646-9.646z"/><path d="m199.354 45.063c7.947 0 14.413-6.466 14.413-14.413 0-7.948-6.466-14.414-14.413-14.414s-14.413 6.466-14.413 14.414c0 7.947 6.466 14.413 14.413 14.413zm0-20.827c3.536 0 6.413 2.877 6.413 6.414 0 3.536-2.877 6.413-6.413 6.413s-6.413-2.877-6.413-6.413c0-3.537 2.877-6.414 6.413-6.414z"/><path d="m151.246 147.57c2.908 0 3.648-2.312 5.681-5.822 1.106-1.912.454-4.359-1.458-5.466s-4.36-.454-5.466 1.458l-2.215 3.826c-1.552 2.681.411 6.004 3.458 6.004z"/><path d="m160.977 130.763c1.381 0 2.724-.715 3.466-1.997l9.52-16.443c1.106-1.912.454-4.359-1.458-5.466s-4.358-.454-5.466 1.458l-9.52 16.443c-1.552 2.682.41 6.005 3.458 6.005z"/></g></svg>