<svg id="Layer_3" enable-background="new 0 0 64 64" height="512" viewBox="0 0 64 64" width="512" xmlns="http://www.w3.org/2000/svg"><path d="m52.379 32.672h4.243v5.657h-4.243z" fill="#f4b2b0" transform="matrix(.707 -.707 .707 .707 -9.14 48.935)"/><path d="m2 2v52h30l8-8v-44zm4.707 9.293 4.586-4.586c.453-.453 1.067-.707 1.707-.707s1.254.254 1.707.707l.586.586c.453.453.707 1.067.707 1.707s-.254 1.254-.707 1.707l-4.586 4.586c-.453.453-1.067.707-1.707.707s-1.254-.254-1.707-.707l-.586-.586c-.453-.453-.707-1.067-.707-1.707s.254-1.254.707-1.707zm-.707 8.707h18v8h-18zm30 24h-30v-4h30zm0-8h-30v-4h30z" fill="#f4b2b0"/><g fill="#b3404a"><path d="m6 29h18c.552 0 1-.447 1-1v-8c0-.553-.448-1-1-1h-18c-.552 0-1 .447-1 1v8c0 .553.448 1 1 1zm1-8h16v6h-16z"/><path d="m27 19h10v2h-10z"/><path d="m27 23h10v2h-10z"/><path d="m27 27h10v2h-10z"/><path d="m6 37h30c.552 0 1-.447 1-1v-4c0-.553-.448-1-1-1h-30c-.552 0-1 .447-1 1v4c0 .553.448 1 1 1zm1-4h28v2h-28z"/><path d="m6 45h30c.552 0 1-.447 1-1v-4c0-.553-.448-1-1-1h-30c-.552 0-1 .447-1 1v4c0 .553.448 1 1 1zm1-4h28v2h-28z"/><path d="m5 47h28v2h-28z"/><path d="m62 28.586-.585-.586c-1.289-1.289-3.541-1.289-4.829 0l-15.586 15.586v-41.586c0-.553-.448-1-1-1h-38c-.552 0-1 .447-1 1v52c0 .553.448 1 1 1h28.382l-3.276 6.553c-.192.385-.117.85.188 1.154.191.192.447.293.706.293.151 0 .305-.034.447-.105l8-4-.006-.011c.094-.047.187-.098.265-.176l25.294-25.294c.645-.646 1-1.503 1-2.414s-.355-1.769-1-2.414zm-8 4.828 2.586 2.586-1.586 1.586-2.586-2.586zm-51-30.414h36v42.586l-7.414 7.414h-28.586zm29.274 52.688 2.038 2.038-4.076 2.038zm3.726.898-2.586-2.586 17.586-17.586 2.586 2.586zm24.586-24.586-2.586 2.586-2.586-2.586 2.586-2.586c.533-.535 1.465-.535 2 0l.585.586c.268.268.415.622.415 1s-.147.732-.414 1z"/><path d="m6.585 16c.645.645 1.502 1 2.415 1s1.77-.355 2.414-1l4.586-4.586c.645-.646 1-1.503 1-2.414s-.355-1.769-1-2.414l-.585-.586c-1.289-1.289-3.541-1.289-4.829 0l-4.586 4.586c-.645.645-1 1.503-1 2.414s.355 1.769 1 2.414zm5.415-8.586c.533-.535 1.465-.535 2 0l.585.586c.268.268.415.622.415 1s-.147.732-.414 1l-1.586 1.586-2.586-2.586zm-4.586 4.586 1.586-1.586 2.586 2.586-1.586 1.586c-.533.535-1.465.535-2 0l-.585-.586c-.268-.268-.415-.622-.415-1 0-.377.147-.732.414-1z"/><path d="m19 7h18v2h-18z"/><path d="m19 11h18v2h-18z"/><path d="m19 15h18v2h-18z"/><path d="m37 61h18v2h-18z"/><path d="m57 61h2v2h-2z"/></g></svg>